<svg width="17" height="17" viewBox="0 0 17 17" fill="none" xmlns="http://www.w3.org/2000/svg">
<circle cx="8.5" cy="8.5" r="8" fill="white" stroke="#F1F1F1"/>
<path d="M15.3499 8.54076C15.4394 8.33995 15.4876 8.12148 15.4876 7.89512C15.4876 7.47058 15.3224 7.07135 15.022 6.77121C14.954 6.70316 14.8554 6.68597 14.7706 6.71725C14.7706 6.712 14.7713 6.70674 14.7713 6.70125C14.7713 6.27671 14.6061 5.87748 14.3057 5.57734C14.2123 5.48398 14.0614 5.48398 13.9681 5.57734L11.6023 7.94335C11.0746 6.78984 9.91227 5.98493 8.5632 5.98493C7.21413 5.98493 6.05178 6.78984 5.52433 7.94335L3.15856 5.57734C3.0652 5.48398 2.91429 5.48398 2.82093 5.57734C2.52032 5.87748 2.35509 6.27671 2.35509 6.70125C2.35509 6.70674 2.3558 6.712 2.3558 6.71725C2.27104 6.68597 2.17243 6.70292 2.10438 6.77121C1.804 7.07135 1.63877 7.47058 1.63877 7.89512C1.63877 8.12148 1.687 8.33995 1.77654 8.54076C1.53323 8.82729 1.39999 9.1864 1.39999 9.56653C1.39999 9.99107 1.56523 10.3903 1.8656 10.6904C2.68054 11.5054 3.76409 11.9543 4.91665 11.9543H6.50234C7.07086 12.4013 7.78575 12.6706 8.56344 12.6706C9.34112 12.6706 10.056 12.4013 10.6245 11.9543H12.2102C13.3625 11.9543 14.4461 11.5054 15.261 10.6904C15.5612 10.3903 15.7264 9.99107 15.7264 9.56653C15.7264 9.1864 15.5932 8.82729 15.3499 8.54076ZM10.5149 11.4194L9.54766 10.4521L9.96002 9.00924L11.2289 8.28408C11.3561 8.6081 11.4285 8.95933 11.4285 9.32776C11.4285 10.1532 11.0756 10.8963 10.5149 11.4194ZM5.69792 9.32776C5.69792 9.03335 5.74281 8.74945 5.82566 8.48178L7.24803 9.29457L7.57873 10.4521L6.61146 11.4194C6.05082 10.8963 5.69792 10.1532 5.69792 9.32776ZM7.64917 8.96076L8.5632 8.4123L9.47722 8.96076L9.09948 10.2829H8.02691L7.64917 8.96076ZM11.0166 7.85548L9.75993 8.57347L8.80197 7.99875V6.47466C9.74274 6.55273 10.5539 7.08711 11.0166 7.85548ZM8.32442 6.47466V7.99875L7.24636 8.64558C7.21986 8.66158 7.19861 8.68283 7.1807 8.70647L6.0088 8.03671C6.4479 7.17163 7.31107 6.5587 8.32442 6.47466ZM2.20323 10.3528C1.99311 10.1427 1.87754 9.86357 1.87754 9.56653C1.87754 9.35092 1.93867 9.14438 2.05232 8.96697L3.05947 9.97412L3.39709 9.63649L2.442 8.6814C2.23188 8.47128 2.11631 8.19215 2.11631 7.89512C2.11631 7.67951 2.17744 7.47297 2.2911 7.29556L3.53702 8.54148L3.87464 8.20385L3.15832 7.48753C2.9482 7.27741 2.83263 6.99829 2.83263 6.70125C2.83263 6.48564 2.89376 6.2791 3.00742 6.10169L5.34405 8.43857C5.26574 8.72223 5.22037 9.0195 5.22037 9.32776C5.22037 10.1458 5.51669 10.8951 6.00641 11.4767H4.91665C3.89183 11.4767 2.92791 11.0775 2.20323 10.3528ZM6.98753 11.7186L7.94573 10.7604H9.18066L10.1389 11.7186C9.68639 12.0178 9.14509 12.193 8.5632 12.193C7.98131 12.193 7.44001 12.0178 6.98753 11.7186ZM14.9232 10.3528C14.1985 11.0775 13.2346 11.4767 12.2097 11.4767H11.12C11.6097 10.8951 11.906 10.1458 11.906 9.32776C11.906 9.0195 11.8607 8.72223 11.7823 8.43857L14.119 6.10169C14.2326 6.2791 14.2938 6.48564 14.2938 6.70125C14.2938 6.99829 14.1782 7.27741 13.9681 7.48753L13.2518 8.20385L13.5894 8.54148L14.8353 7.29556C14.949 7.47297 15.0101 7.67951 15.0101 7.89512C15.0101 8.19215 14.8945 8.47128 14.6844 8.6814L13.7293 9.63649L14.0669 9.97412L15.0741 8.96697C15.1877 9.14438 15.2489 9.35092 15.2489 9.56653C15.2489 9.86357 15.1333 10.1427 14.9232 10.3528Z" fill="#292929"/>
<circle cx="8.69427" cy="9.00347" r="4.50347" fill="white"/>
<path d="M8.69415 7.24316L7.0202 8.45922L7.66014 10.427H9.72841L10.3682 8.45922L8.69415 7.24316Z" fill="#292929"/>
<path d="M13.1981 9.00348C13.1981 11.491 11.1818 13.5073 8.69415 13.5073C6.20789 13.5073 4.1908 11.491 4.1908 9.00348C4.1908 6.51647 6.20776 4.5 8.69415 4.5C11.1816 4.50012 13.1981 6.51647 13.1981 9.00348ZM4.79306 9.89485L6.44346 11.0936L6.12511 12.0723C6.75092 12.5965 7.52308 12.9165 8.33551 12.9898L9.98592 11.7904L10.8189 12.3952C11.5099 11.9619 12.0536 11.3268 12.3737 10.5764L11.7443 8.6358L12.577 8.03093C12.3779 7.23944 11.9418 6.52626 11.327 5.98943H9.28712L8.96864 5.01069C8.15471 4.9548 7.34227 5.14923 6.64124 5.56809L6.01072 7.50822H4.9813C4.67694 8.26576 4.61015 9.09865 4.79306 9.89485Z" fill="#292929"/>
</svg>
